<?xml version="1.0" encoding="UTF-8"?>
<svg version="1.1" xmlns="http://www.w3.org/2000/svg" width="584" height="584">
<path d="M0 0 C192.72 0 385.44 0 584 0 C584 192.72 584 385.44 584 584 C391.28 584 198.56 584 0 584 C0 391.28 0 198.56 0 0 Z " fill="#193B29" transform="translate(0,0)"/>
<path d="M0 0 C1.45475165 -0.00418389 2.90950004 -0.00966714 4.36424249 -0.01631981 C8.32093403 -0.03065434 12.27741516 -0.02656775 16.23411763 -0.019153 C20.51706987 -0.01439376 24.79997837 -0.02695521 29.08291626 -0.03717041 C37.45679357 -0.05430863 45.83059568 -0.05520899 54.20448596 -0.04995751 C61.01325875 -0.04590615 67.82200943 -0.04737079 74.63078117 -0.05270576 C76.08769652 -0.0538284 76.08769652 -0.0538284 77.57404451 -0.05497371 C79.54753253 -0.05650527 81.52102055 -0.05804362 83.49450856 -0.05958868 C101.97267512 -0.07329509 120.45079926 -0.06788856 138.92896485 -0.05640347 C155.81636821 -0.04646762 172.70366207 -0.05942115 189.59104855 -0.08333766 C206.95646649 -0.10774485 224.32183345 -0.11733288 241.6872682 -0.11068493 C251.4265753 -0.10719702 261.16579815 -0.10939682 270.90509224 -0.12693596 C279.19346612 -0.14167797 287.48169639 -0.14226698 295.77006752 -0.12486505 C299.99454615 -0.11637016 304.21876843 -0.11416846 308.44323349 -0.1295166 C312.31769118 -0.14341842 316.19167421 -0.13853085 320.06610482 -0.11927737 C321.46025432 -0.11553387 322.85444234 -0.11839124 324.24855734 -0.12888902 C343.63422027 -0.26437162 360.00490613 7.09993754 374.04063416 20.38768005 C379.25078921 25.72855585 382.95537022 31.67153485 386.35313416 38.26268005 C386.84172913 39.19769348 386.84172913 39.19769348 387.3401947 40.15159607 C392.12507033 49.91672457 393.50077726 59.96334226 393.43907166 70.73143005 C393.44194183 71.86238098 393.44481201 72.99333191 393.44776917 74.15855408 C393.4497958 76.53164679 393.44436493 78.90475674 393.43174744 81.27781677 C393.41567457 84.87862546 393.43164518 88.47831189 393.45079041 92.0790863 C393.44880773 94.40070333 393.44496354 96.72231966 393.43907166 99.04393005 C393.44514435 100.10366028 393.45121704 101.1633905 393.45747375 102.25523376 C393.28783764 120.57882414 385.97094544 138.24660811 373.41563416 151.57518005 C364.06666636 160.472234 353.32683929 165.73157749 341.04063416 169.38768005 C339.94102891 169.73295053 338.84142366 170.07822102 337.70849705 170.43395424 C331.55100657 171.94538897 325.26830256 171.67073258 318.96810913 171.65510559 C317.53646212 171.65884576 316.10481715 171.66344874 314.67317539 171.66883624 C310.75243812 171.68103685 306.83178637 171.68080924 302.91103446 171.67844748 C298.67702483 171.67803856 294.44304233 171.6890858 290.20904541 171.69856262 C281.917913 171.71515849 273.62680903 171.72067157 265.3356614 171.72178738 C258.59255539 171.72273871 251.84945872 171.7268533 245.10635567 171.73318863 C225.97214116 171.75079876 206.83794907 171.76002809 187.7037264 171.75852768 C186.15721083 171.75840781 186.15721083 171.75840781 184.57945251 171.75828552 C183.54717724 171.75820376 182.51490197 171.758122 181.45134563 171.75803776 C164.733045 171.75722538 148.01483459 171.77635161 131.29656004 171.80456226 C114.11438937 171.8333259 96.93226264 171.84710057 79.75006729 171.8453747 C70.11008746 171.84471191 60.47020215 171.85015551 50.83024406 171.8717308 C42.62010808 171.88998865 34.41010944 171.89425242 26.19996189 171.88071196 C22.01577629 171.87420489 17.83185382 171.87398256 13.64769363 171.89141846 C9.8074403 171.9072557 5.96765638 171.90417845 2.12741376 171.88685019 C0.10086188 171.88237461 -1.92570519 171.89735371 -3.95219904 171.91332948 C-23.24349728 171.76990877 -40.98665711 164.86444388 -54.95936584 151.38768005 C-61.55337269 144.44936589 -66.12980034 137.13391353 -69.95936584 128.38768005 C-70.27647522 127.7018988 -70.59358459 127.01611755 -70.92030334 126.30955505 C-76.07866518 114.15420737 -75.3319983 100.13242369 -75.32997131 87.20530701 C-75.33434263 84.09171232 -75.37076373 80.97954084 -75.40858459 77.86619568 C-75.53151733 56.37361696 -71.43311691 37.41533025 -56.16371155 21.46629333 C-39.97736749 5.24385004 -22.68674836 -0.10329686 0 0 Z " fill="#C671A2" transform="translate(132.95936584472656,206.61231994628906)"/>
<path d="M0 0 C4.54144994 -0.11647041 9.08251394 -0.18734502 13.625 -0.25 C15.55279297 -0.30027344 15.55279297 -0.30027344 17.51953125 -0.3515625 C29.2514647 -0.47313694 29.2514647 -0.47313694 34 4 C34.639375 4.5775 35.27875 5.155 35.9375 5.75 C37.59616288 9.26246256 37.13641476 12.41168431 36 16 C34.22549678 19.0674498 32.34277935 21.59111764 28.83203125 22.66015625 C27.92517578 22.82837891 27.92517578 22.82837891 27 23 C29.05343069 26.06867058 31.11932891 29.12874859 33.1875 32.1875 C33.76564453 33.05181641 34.34378906 33.91613281 34.93945312 34.80664062 C37.9919287 39.30774867 40.9719657 43.33608179 45 47 C40.63195439 48.16633679 37.32773258 48.42431705 33 47 C28.73437781 42.72277594 25.88375846 37.18528477 23.04638672 31.90112305 C22.11885358 30.2159386 21.06701083 28.60051624 20 27 C18.02 26.67 16.04 26.34 14 26 C14 31.94 14 37.88 14 44 C15.65 44.66 17.3 45.32 19 46 C19 46.33 19 46.66 19 47 C12.73 47 6.46 47 0 47 C1.65 45.68 3.3 44.36 5 43 C5.74383655 41.01270338 5.74383655 41.01270338 5.65942383 38.87402344 C5.68888847 37.67323151 5.68888847 37.67323151 5.71894836 36.44818115 C5.71304939 35.16672211 5.71304939 35.16672211 5.70703125 33.859375 C5.72215256 32.97719299 5.73727386 32.09501099 5.75285339 31.18609619 C5.79577476 28.37380503 5.80457248 25.56258625 5.8125 22.75 C5.83564092 20.84111723 5.86100541 18.93226004 5.88867188 17.0234375 C5.95156794 12.34886335 5.98386854 7.67496001 6 3 C4.02 2.34 2.04 1.68 0 1 C0 0.67 0 0.34 0 0 Z " fill="#E9E6E8" transform="translate(277,269)"/>
<path d="M0 0 C0.9178125 0.08765625 1.835625 0.1753125 2.78125 0.265625 C5.5 0.75 5.5 0.75 10.5 2.75 C10.5 6.71 10.5 10.67 10.5 14.75 C7.5 11.75 7.5 11.75 5.4375 8.625 C3.80854547 5.69935958 3.80854547 5.69935958 1.5 4.75 C-0.20702735 4.68003986 -1.91668003 4.66559846 -3.625 4.6875 C-4.53507813 4.69652344 -5.44515625 4.70554687 -6.3828125 4.71484375 C-7.43082031 4.73224609 -7.43082031 4.73224609 -8.5 4.75 C-9.26123479 11.30296772 -9.26123479 11.30296772 -6.6875 17 C-4.748699 18.06443977 -2.80678547 19.12326936 -0.859375 20.171875 C0.10484375 20.69265625 1.0690625 21.2134375 2.0625 21.75 C2.99191406 22.224375 3.92132813 22.69875 4.87890625 23.1875 C7.62825343 24.8264551 9.52811086 26.22451785 11.5 28.75 C11.9609375 31.40625 11.9609375 31.40625 11.875 34.25 C11.85566406 35.65765625 11.85566406 35.65765625 11.8359375 37.09375 C11.39030118 40.61738603 10.527271 42.74906928 7.9765625 45.234375 C2.01065971 49.31233387 -3.41482393 49.65932741 -10.5 48.75 C-13.37018264 47.97522677 -15.78776579 47.0018004 -18.5 45.75 C-18.5 41.79 -18.5 37.83 -18.5 33.75 C-15.5 37.75 -15.5 37.75 -15.125 39.875 C-14.65527419 41.93598973 -14.65527419 41.93598973 -12.5625 43 C-8.25715041 44.05437133 -3.89737429 44.44314544 0.5 43.75 C2.3432234 42.53720941 2.3432234 42.53720941 3.5 40.75 C4.08342353 37.29230809 4.08342353 37.29230809 3.5 33.75 C-0.1868785 29.18360109 -5.24660422 27.17914402 -10.40625 24.62890625 C-13.66619373 22.64906669 -15.42937632 20.93253377 -17.5 17.75 C-18.28188194 13.41410922 -18.45395242 11.26619811 -16.1015625 7.52734375 C-11.40640073 1.8787976 -7.54644297 -0.80551919 0 0 Z " fill="#E8E4E6" transform="translate(255.5,268.25)"/>
<path d="M0 0 C6.27 0 12.54 0 19 0 C16 3 16 3 14 4 C13.98541748 4.99741211 13.97083496 5.99482422 13.95581055 7.02246094 C13.89713105 10.78012094 13.81991407 14.53722443 13.73754883 18.29443359 C13.70462273 19.90990051 13.6764942 21.52547356 13.65356445 23.14111328 C13.27806668 48.91464105 13.27806668 48.91464105 4.8515625 57.57421875 C2.32231062 59.52184941 0.16459585 60 -3 60 C-4.125 56.25 -4.125 56.25 -3 54 C-0.66666667 53.66666667 1.66666667 53.33333333 4 53 C5.19822872 50.60354256 5.15627315 49.04337973 5.20532227 46.36669922 C5.2352401 44.92543167 5.2352401 44.92543167 5.26576233 43.45504761 C5.29083107 41.89561935 5.29083107 41.89561935 5.31640625 40.3046875 C5.33718735 39.24210724 5.35796844 38.17952698 5.37937927 37.08474731 C5.44490261 33.68156562 5.50377273 30.27830511 5.5625 26.875 C5.60568257 24.57160634 5.64929677 22.26822074 5.69335938 19.96484375 C5.80058682 14.30997979 5.90234802 8.65503697 6 3 C4.02 2.34 2.04 1.68 0 1 C0 0.67 0 0.34 0 0 Z " fill="#EAE9E9" transform="translate(328,269)"/>
<path d="M0 0 C8.10651499 -0.48397104 8.10651499 -0.48397104 12 1.625 C14.46405862 4.55106961 15 6.18177121 15 10 C13.39588152 13.52906067 12.25840638 14.82772908 9 17 C5.97670744 17.2610788 3.04123758 17.08815181 0 17 C0 11.39 0 5.78 0 0 Z " fill="#C773A4" transform="translate(291,273)"/>
</svg>
